<?xml version="1.0" encoding="UTF-8" standalone="no"?>
<!-- Converted By https://cloudconvert.com/eps-to-svg On 2021-08-25T05:37:00Z From Dragon_yellow.eps For Peter-James-Mangelsdorf-201943 -->
<svg
   xmlns:dc="http://purl.org/dc/elements/1.1/"
   xmlns:cc="http://creativecommons.org/ns#"
   xmlns:rdf="http://www.w3.org/1999/02/22-rdf-syntax-ns#"
   xmlns:svg="http://www.w3.org/2000/svg"
   xmlns="http://www.w3.org/2000/svg"
   xmlns:sodipodi="http://sodipodi.sourceforge.net/DTD/sodipodi-0.dtd"
   xmlns:inkscape="http://www.inkscape.org/namespaces/inkscape"
   version="1.1"
   id="svg2"
   xml:space="preserve"
   width="13.935601"
   height="9.8233331"
   viewBox="0 0 1393.5601 982.33331"
   sodipodi:docname="Drexel University Logo"><metadata
     id="metadata8"><rdf:RDF><cc:Work
         rdf:about=""><dc:format>image/svg+xml</dc:format><dc:type
           rdf:resource="http://purl.org/dc/dcmitype/StillImage" /></cc:Work></rdf:RDF></metadata><defs
     id="defs6" /><sodipodi:namedview
     pagecolor="#ffffff"
     bordercolor="#666666"
     borderopacity="1"
     objecttolerance="10"
     gridtolerance="10"
     guidetolerance="10"
     inkscape:pageopacity="0"
     inkscape:pageshadow="2"
     inkscape:window-width="640"
     inkscape:window-height="480"
     id="namedview4" /><g
     id="g10"
     inkscape:groupmode="layer"
     inkscape:label="ink_ext_XXXXXX"
     transform="matrix(1.3333333,0,0,-1.3333333,0,982.33333)"><g
       id="g12"
       transform="scale(0.1)"><path
         d="m 9309.48,2364.52 c 27.73,96.97 28.1,190.78 22.67,297.7 164.96,-33.32 154.05,-285.24 -22.67,-297.7 M 8233.74,605.68 c 0,0 -32.64,-178.27 -136.39,-127.02 -103.75,51.25 -128.4,208.672 -128.4,208.672 0,0 119.79,-50.402 264.79,-81.652 z m 772.5,-287.5 c -117.5,-192.5 -438.75,21.25 -438.75,21.25 92.5,71.25 151.25,196.25 171.25,350 162.5,-11.25 392.14,-167.039 267.5,-371.25 z M 7688.33,5724.01 c -134.14,51.47 -96.31,464.51 -96.31,464.51 31.97,-187.91 254.5,-315.86 446.5,-206.09 0,0 -196.02,-317.59 -350.19,-258.42 z m -302.4,-3199.1 c -99.23,-18.81 -223.61,23.31 -297.7,80.05 -238.93,183.37 -337.13,675.37 -354.79,1053.34 102.07,-217.15 265.18,-560.22 560.87,-469.5 101.01,31.09 220.68,165.63 220.68,165.63 92.3,-252.18 169.71,-772.91 -129.06,-829.52 m 1616.57,3941.5 c 96.98,-4.89 193.74,-61.98 192.53,-140.46 -1.84,-120.36 -116.33,-149.61 -205.08,-140.86 -119.23,11.75 -174.61,80.77 -173.04,151.73 1.83,82.61 88,134.51 185.59,129.59 z m -1295.01,501.77 c 142.5,342.5 513.59,398.92 513.59,398.92 -286.41,8.92 -1198.59,-136.42 -1281.71,-1041.15 -27.34,-297.63 82.82,-548.28 206.28,-755.66 -153.81,116.73 -338.91,315.71 -366.31,583.76 -22.52,217.84 91.91,551.94 91.91,551.94 -218.78,-258.85 -452.28,-582.86 -401.2,-1021.27 47.69,-408.71 319.7,-684.71 503.9,-915.78 -134.77,65.78 -219.41,133.5 -343.63,263.28 40.01,-490.48 193.29,-867.74 538.08,-1053.25 -439.39,42.11 -527.04,351.44 -652.56,698.2 -87.38,241.72 -233.02,378.31 -366.3,526.8 206.31,-41.58 323.06,-173.04 423.75,-320.69 -65.35,423.35 -370.42,606.72 -801.74,664.18 182.8,165.5 485.72,2.7 626.17,-76.55 0,0 -88.39,174.13 -168.08,259.66 -211.08,226.24 -673.25,173 -950.22,80.27 99.88,174.43 372,309.05 606.85,240.25 -144.42,125.82 -322.96,214.02 -549.68,228.92 -388.11,25.97 -713.1,-186.8 -904.36,-332.02 46.46,251.16 249.37,346.07 434.97,458.09 -648.07,107.81 -976.38,-296.68 -1190.6,-698.51 -19.64,246.89 196.51,525.27 196.51,525.27 -794.37,-327.84 -677.4,-1223.65 -677.4,-1223.65 -146.09,88.23 -141.93,418.72 -91.62,572.6 0,0 -161.67,-227.81 -166.62,-554.45 -5,-330 226.67,-681.67 226.67,-681.67 -238.34,33.34 -386.67,510 -386.67,510 -130,-670 441.67,-1210 441.67,-1210 -256.67,26.67 -478.33,348.33 -478.33,348.33 91.67,-661.66 675.47,-1018.37 675.47,-1018.37 -182.54,-37.45 -449.61,144.57 -449.61,144.57 224.21,-508.8 555.8,-752.86 555.8,-752.86 -203.33,-10 -418.38,236.67 -418.38,236.67 -18.33,-236.66 113.38,-548.34 113.38,-548.34 -208.33,73.33 -270,371.67 -270,371.67 -170,-238.33 -136.66,-591.67 -136.66,-591.67 -201.67,133.34 -186.67,416.67 -186.67,416.67 -196.67,-98.33 -310.51,-489.6 -310.51,-489.6 -98.33,211.67 5.51,459.6 5.51,459.6 -273.34,-70 -446.67,-393.34 -446.67,-393.34 -17.48,197.93 108.77,430.43 108.77,430.43 -214.99,-6.67 -398.77,-312.09 -398.77,-312.09 -37.48,202.09 153.33,423.77 153.33,423.77 -236.66,25 -439.99,-228.77 -439.99,-228.77 -28.32,233.34 200,406.66 200,406.66 -251.66,60 -439.57,-163.32 -439.57,-163.32 -35,245 232.5,416.25 232.5,416.25 -201.67,86.66 -421.263,-92.93 -421.263,-92.93 -25,250 252.723,391.72 252.723,391.72 -169.997,116.68 -393.173,2.36 -393.173,2.36 36.664,205 291.663,260.05 291.663,260.05 -145.432,164.93 -362.073,148.8 -362.073,148.8 72.117,180 308.973,148.75 308.973,148.75 -114.121,161.66 -321.856,217.49 -321.856,217.49 130,110.01 314.856,33.88 314.856,33.88 -51.766,178.79 -264.856,283.63 -264.856,283.63 166.672,55 325.426,-55 325.426,-55 -20.012,163.33 -193.265,314.39 -193.265,314.39 193.335,-8.34 326.595,-149.39 326.595,-149.39 -1.67,140 -97.19,310.48 -97.19,310.48 156.67,-48.33 295.52,-207.15 295.52,-207.15 16.67,131.66 -21.38,211.01 -21.38,211.01 260.77,-97.97 422.82,-294.86 561.13,-515.1 -70.86,405.47 -326.26,697.63 -732.75,732.68 C 450.055,4898.42 -1.40234,4095.68 0.00390625,3507.34 1.64453,2821.21 234.121,2364.78 540.297,1920.13 895.801,1403.8 1510.89,1005.94 2086.47,887.449 c -183.4,-59.258 -355.53,-206 -355.53,-375.289 299.09,-19.73 544.49,-155.129 671.56,-318.808 0,0 853.32,0 1049.99,0 255,0 487.31,5.488 567.56,22.687 193.55,41.473 283.92,478.102 515.32,469.441 229.6,-8.449 162.2,-379.539 -34.61,-389.16 -64.2,-3.269 -94.22,27.11 -148.73,45.66 207.84,-497.421 825.65,64.942 537.96,412.149 335.29,-13.449 313.12,-447.457 80.21,-492.258 366.05,-35.48 472.29,328.809 303.96,592.141 -168.33,263.328 -503.34,213.338 -771.67,86.668 -268.34,-126.668 -510,-225 -688.56,-247.617 -143.69,-18.204 -283.97,-9.922 -377.86,45.816 -274.15,162.512 214.19,432.151 331.98,503.771 432.93,262.73 894.24,577.63 938.91,1201.98 33.47,465.84 -141.83,708.86 -286.34,996.09 -118.4,235.73 -243.88,472.87 -263.17,778.5 -26.42,416.11 280.5,725.87 652.55,709.87 521.96,-22.29 789.24,-437.72 824.39,-961.77 13.79,-207.61 -31.77,-455.11 -45.79,-664.02 -58.26,-869.12 358.64,-1314.39 824.29,-1717.25 426.89,-369.19 845.15,-609.429 1373.88,-835.859 36.6,-334.402 240.54,-703.7418 641.12,-526.711 207.6,-356.96 977.87,-290.3394 869.98,229 -50.23,242.301 -408.11,277.7 -382.88,554.45 12.13,131.77 163.6,203.22 302.87,155.47 147.43,-50.81 216.96,-275.189 206.01,-435.048 230.92,385.218 -4.23,947.448 -480.61,835.818 -242.24,-56.7 -481.09,-481.08 -481.09,-481.08 -307.18,166.09 -600.93,331.09 -600.93,331.09 705.61,34.75 1152.08,346.89 1413.88,825.4 340.72,-78.9 571.25,155.83 480.85,435.09 0,0 297.73,-91.74 331.53,-335.49 33.7,-243.75 -291.38,-299.49 -475.7,-180.37 0,0 156.17,-373.07 455.3,-300.1 299.1,72.97 266.6,390.47 201.6,516.72 -65,126.25 -334.96,365 -265,526.25 70,161.25 395,52.46 347.5,-364.4 237.1,331.3 28.7,858.78 -354.69,858.78 -283.99,0 -396.74,-242.1 -469.64,-492.43 0,0 -91.88,35.55 -194.72,11.48 -58.72,402.19 -312.28,664.32 -721.02,824.29 -365.53,143.3 -720.83,391.16 -755.71,790.05 -16.51,188.17 42.85,340.36 183.1,412.11 366.02,186.93 612.19,-215.98 675.57,-480.95 -4.17,311.32 113.28,460.8 251.84,618.38 -111.45,186.22 -328.29,345.92 -618.23,309.19 -200.97,-25.4 -395.02,-134.08 -395.02,-134.08 94.59,215.76 259.3,597.32 623.93,614.93 295.98,14.15 440.07,-246.69 526.77,-503.82 48.77,485.36 307.89,821.59 549.59,1076.21 -282.13,-165.93 -427.14,183.11 -698.51,183.11 -387.35,0 -574.82,-428.07 -904.3,-469.48 -137.62,-17 -241.11,81.02 -297.74,125.96 -104.49,82.92 -187.43,345.67 -44.93,688.17"
         style="fill:#fdd809;fill-opacity:1;fill-rule:nonzero;stroke:none"
         id="path14" /></g></g></svg>
